<mxfile host="app.diagrams.net" modified="2020-09-01T01:05:54.705Z" agent="5.0 (X11)" etag="Qjzu50hyma-bs5jd5Hfj" version="13.6.6" type="github">
  <diagram id="cKj5entFNV8dxjdf3geW" name="Page-1">
    <mxGraphModel dx="810" dy="449" grid="1" gridSize="10" guides="1" tooltips="1" connect="1" arrows="1" fold="1" page="1" pageScale="1" pageWidth="980" pageHeight="690" math="0" shadow="0">
      <root>
        <mxCell id="0" />
        <mxCell id="1" parent="0" />
        <mxCell id="wk2v5SOsEOo2g_F0uuMf-2" value="" style="shape=table;html=1;whiteSpace=wrap;startSize=0;container=1;collapsible=0;childLayout=tableLayout;spacing=2;fillColor=#f5f5f5;strokeColor=#666666;fontColor=#333333;" vertex="1" parent="1">
          <mxGeometry x="400" y="160" width="280" height="120" as="geometry" />
        </mxCell>
        <mxCell id="wk2v5SOsEOo2g_F0uuMf-17" style="shape=partialRectangle;html=1;whiteSpace=wrap;collapsible=0;dropTarget=0;pointerEvents=0;fillColor=none;top=0;left=0;bottom=0;right=0;points=[[0,0.5],[1,0.5]];portConstraint=eastwest;" vertex="1" parent="wk2v5SOsEOo2g_F0uuMf-2">
          <mxGeometry width="280" height="30" as="geometry" />
        </mxCell>
        <mxCell id="wk2v5SOsEOo2g_F0uuMf-18" value="name" style="shape=partialRectangle;html=1;whiteSpace=wrap;connectable=0;top=0;left=0;bottom=0;right=0;overflow=hidden;fillColor=#E6E6E6;" vertex="1" parent="wk2v5SOsEOo2g_F0uuMf-17">
          <mxGeometry width="80" height="30" as="geometry" />
        </mxCell>
        <mxCell id="wk2v5SOsEOo2g_F0uuMf-19" value="position" style="shape=partialRectangle;html=1;whiteSpace=wrap;connectable=0;top=0;left=0;bottom=0;right=0;overflow=hidden;fillColor=#E6E6E6;" vertex="1" parent="wk2v5SOsEOo2g_F0uuMf-17">
          <mxGeometry x="80" width="140" height="30" as="geometry" />
        </mxCell>
        <mxCell id="wk2v5SOsEOo2g_F0uuMf-20" value="salary" style="shape=partialRectangle;html=1;whiteSpace=wrap;connectable=0;top=0;left=0;bottom=0;right=0;overflow=hidden;fillColor=#E6E6E6;" vertex="1" parent="wk2v5SOsEOo2g_F0uuMf-17">
          <mxGeometry x="220" width="60" height="30" as="geometry" />
        </mxCell>
        <mxCell id="wk2v5SOsEOo2g_F0uuMf-3" value="" style="shape=partialRectangle;html=1;whiteSpace=wrap;collapsible=0;dropTarget=0;pointerEvents=0;fillColor=none;top=0;left=0;bottom=0;right=0;points=[[0,0.5],[1,0.5]];portConstraint=eastwest;" vertex="1" parent="wk2v5SOsEOo2g_F0uuMf-2">
          <mxGeometry y="30" width="280" height="30" as="geometry" />
        </mxCell>
        <mxCell id="wk2v5SOsEOo2g_F0uuMf-4" value="JEFFERY A" style="shape=partialRectangle;html=1;whiteSpace=wrap;connectable=0;top=0;left=0;bottom=0;right=0;overflow=hidden;align=left;spacing=6;fillColor=#F5F5F5;" vertex="1" parent="wk2v5SOsEOo2g_F0uuMf-3">
          <mxGeometry width="80" height="30" as="geometry" />
        </mxCell>
        <mxCell id="wk2v5SOsEOo2g_F0uuMf-5" value="SERGEANT" style="shape=partialRectangle;html=1;whiteSpace=wrap;connectable=0;top=0;left=0;bottom=0;right=0;overflow=hidden;align=left;spacing=8;fillColor=#F5F5F5;" vertex="1" parent="wk2v5SOsEOo2g_F0uuMf-3">
          <mxGeometry x="80" width="140" height="30" as="geometry" />
        </mxCell>
        <mxCell id="wk2v5SOsEOo2g_F0uuMf-6" value="101442" style="shape=partialRectangle;html=1;whiteSpace=wrap;connectable=0;top=0;left=0;bottom=0;right=0;overflow=hidden;align=right;spacing=6;fillColor=#F5F5F5;" vertex="1" parent="wk2v5SOsEOo2g_F0uuMf-3">
          <mxGeometry x="220" width="60" height="30" as="geometry" />
        </mxCell>
        <mxCell id="wk2v5SOsEOo2g_F0uuMf-7" value="" style="shape=partialRectangle;html=1;whiteSpace=wrap;collapsible=0;dropTarget=0;pointerEvents=0;fillColor=none;top=0;left=0;bottom=0;right=0;points=[[0,0.5],[1,0.5]];portConstraint=eastwest;" vertex="1" parent="wk2v5SOsEOo2g_F0uuMf-2">
          <mxGeometry y="60" width="280" height="30" as="geometry" />
        </mxCell>
        <mxCell id="wk2v5SOsEOo2g_F0uuMf-8" value="JAMES A" style="shape=partialRectangle;html=1;whiteSpace=wrap;connectable=0;top=0;left=0;bottom=0;right=0;overflow=hidden;align=left;spacing=6;fillColor=#F5F5F5;" vertex="1" parent="wk2v5SOsEOo2g_F0uuMf-7">
          <mxGeometry width="80" height="30" as="geometry" />
        </mxCell>
        <mxCell id="wk2v5SOsEOo2g_F0uuMf-9" value="FIRE ENGINEER-EMT" style="shape=partialRectangle;html=1;whiteSpace=wrap;connectable=0;top=0;left=0;bottom=0;right=0;overflow=hidden;align=left;spacing=8;fillColor=#F5F5F5;" vertex="1" parent="wk2v5SOsEOo2g_F0uuMf-7">
          <mxGeometry x="80" width="140" height="30" as="geometry" />
        </mxCell>
        <mxCell id="wk2v5SOsEOo2g_F0uuMf-10" value="103350" style="shape=partialRectangle;html=1;whiteSpace=wrap;connectable=0;top=0;left=0;bottom=0;right=0;overflow=hidden;align=right;spacing=6;fillColor=#F5F5F5;" vertex="1" parent="wk2v5SOsEOo2g_F0uuMf-7">
          <mxGeometry x="220" width="60" height="30" as="geometry" />
        </mxCell>
        <mxCell id="wk2v5SOsEOo2g_F0uuMf-11" value="" style="shape=partialRectangle;html=1;whiteSpace=wrap;collapsible=0;dropTarget=0;pointerEvents=0;fillColor=none;top=0;left=0;bottom=0;right=0;points=[[0,0.5],[1,0.5]];portConstraint=eastwest;" vertex="1" parent="wk2v5SOsEOo2g_F0uuMf-2">
          <mxGeometry y="90" width="280" height="30" as="geometry" />
        </mxCell>
        <mxCell id="wk2v5SOsEOo2g_F0uuMf-12" value="TERRY A" style="shape=partialRectangle;html=1;whiteSpace=wrap;connectable=0;top=0;left=0;bottom=0;right=0;overflow=hidden;align=left;spacing=6;fillColor=#F5F5F5;" vertex="1" parent="wk2v5SOsEOo2g_F0uuMf-11">
          <mxGeometry width="80" height="30" as="geometry" />
        </mxCell>
        <mxCell id="wk2v5SOsEOo2g_F0uuMf-13" value="POLICE OFFICER" style="shape=partialRectangle;html=1;whiteSpace=wrap;connectable=0;top=0;left=0;bottom=0;right=0;overflow=hidden;align=left;spacing=8;fillColor=#F5F5F5;" vertex="1" parent="wk2v5SOsEOo2g_F0uuMf-11">
          <mxGeometry x="80" width="140" height="30" as="geometry" />
        </mxCell>
        <mxCell id="wk2v5SOsEOo2g_F0uuMf-14" value="93354" style="shape=partialRectangle;html=1;whiteSpace=wrap;connectable=0;top=0;left=0;bottom=0;right=0;overflow=hidden;align=right;spacing=6;fillColor=#F5F5F5;" vertex="1" parent="wk2v5SOsEOo2g_F0uuMf-11">
          <mxGeometry x="220" width="60" height="30" as="geometry" />
        </mxCell>
      </root>
    </mxGraphModel>
  </diagram>
</mxfile>
